<?xml version="1.0" encoding="UTF-8" standalone="no"?>
<!-- Created with Inkscape (http://www.inkscape.org/) -->

<svg
   width="1075"
   height="300"
   viewBox="0 0 284.42708 79.375"
   version="1.1"
   id="svg1"
   xmlns:xlink="http://www.w3.org/1999/xlink"
   xmlns="http://www.w3.org/2000/svg"
   xmlns:svg="http://www.w3.org/2000/svg">
  <defs
     id="defs1">
    <linearGradient
       id="linearGradient1">
      <stop
         style="stop-color:#ed4141;stop-opacity:1;"
         offset="0.29950494"
         id="stop1" />
      <stop
         style="stop-color:#f9aa79;stop-opacity:1;"
         offset="1"
         id="stop2" />
    </linearGradient>
    <linearGradient
       xlink:href="#linearGradient1"
       id="linearGradient2"
       x1="14.186221"
       y1="56.572075"
       x2="64.296555"
       y2="24.030045"
       gradientUnits="userSpaceOnUse" />
    <filter
       style="color-interpolation-filters:sRGB"
       id="filter41"
       x="-0.2008377"
       y="-0.26516881"
       width="1.4016754"
       height="1.4523468">
      <feFlood
         result="flood"
         in="SourceGraphic"
         flood-opacity="0.301961"
         flood-color="rgb(0,0,0)"
         id="feFlood40" />
      <feGaussianBlur
         result="blur"
         in="SourceGraphic"
         stdDeviation="5.000000"
         id="feGaussianBlur40" />
      <feOffset
         result="offset"
         in="blur"
         dx="0.000000"
         dy="-5.000000"
         id="feOffset40" />
      <feComposite
         result="comp1"
         operator="in"
         in="offset"
         in2="flood"
         id="feComposite40" />
      <feComposite
         result="comp2"
         operator="over"
         in="SourceGraphic"
         in2="comp1"
         id="feComposite41" />
    </filter>
    <linearGradient
       xlink:href="#linearGradient1"
       id="linearGradient53"
       x1="208.04184"
       y1="38.546978"
       x2="279.40494"
       y2="38.546978"
       gradientUnits="userSpaceOnUse"
       gradientTransform="translate(3.2233887)" />
    <filter
       style="color-interpolation-filters:sRGB"
       id="filter54"
       x="-0.1592157"
       y="-0.42910169"
       width="1.3184314"
       height="1.8582034">
      <feFlood
         result="flood"
         in="SourceGraphic"
         flood-opacity="0.301961"
         flood-color="rgb(0,0,0)"
         id="feFlood53" />
      <feGaussianBlur
         result="blur"
         in="SourceGraphic"
         stdDeviation="5.000000"
         id="feGaussianBlur53" />
      <feOffset
         result="offset"
         in="blur"
         dx="0.000000"
         dy="-0.000000"
         id="feOffset53" />
      <feComposite
         result="comp1"
         operator="in"
         in="offset"
         in2="flood"
         id="feComposite53" />
      <feComposite
         result="comp2"
         operator="over"
         in="SourceGraphic"
         in2="comp1"
         id="feComposite54" />
    </filter>
    <linearGradient
       xlink:href="#linearGradient1"
       id="linearGradient54"
       gradientUnits="userSpaceOnUse"
       x1="14.186221"
       y1="56.572075"
       x2="64.296555"
       y2="24.030045"
       gradientTransform="translate(0,-0.6135734)" />
  </defs>
  <g
     id="layer1"
     style="fill:url(#linearGradient2);fill-opacity:1;filter:url(#filter41)"
     transform="matrix(0.8,0,0,0.8,7.8482767,7.4829543)">
    <path
       d="m 40.623163,7.7285548 c -2.63019,0.52363 -4.03468,2.4251902 -4.02866,5.4545202 0.002,1.14444 -0.21369,1.53403 -1.00239,1.80882 -0.44992,0.15672 -0.51074,0.13874 -0.86649,-0.25687 -1.62705,-1.80951 -2.94921,-2.35507 -4.75451,-1.96188 -3.72613,0.81156 -4.73089,4.86802 -1.94153,7.83863 0.64041,0.68202 0.64291,0.67503 -0.20261,0.567 -3.81502,-0.48718 -5.95713,0.92367 -6.68894,4.40574 -0.18988,0.9034 -0.16282,0.93425 1.82674,2.08373 0.63386,0.36622 1.65479,0.97492 2.26868,1.35262 0.6139,0.37776 1.58802,0.95085 2.16471,1.27356 0.57669,0.32278 1.29936,0.74315 1.60594,0.93425 0.49639,0.30943 0.57114,0.33703 0.6831,0.2521 0.0691,-0.0525 0.31963,-0.24574 0.55673,-0.4295 0.6344,-0.49175 1.13431,-0.77345 2.19292,-1.23594 1.16224,-0.50772 1.12375,-0.47778 1.03229,-0.80187 -0.87413,-3.0969 2.33707,-7.55292 5.44309,-7.55292 0.3866,0 0.4623,-0.0671 1.05407,-0.9337 3.25809,-4.77174 9.68104,-4.85204 12.65609,-0.1581 0.22391,0.35321 0.44667,0.69785 0.49511,0.76577 0.0566,0.0795 0.40141,0.20679 0.96742,0.35722 3.87746,1.03066 5.66327,4.05785 4.96718,8.42001 -0.16316,1.0225 -0.2762,0.9698 0.9587,0.44665 2.59176,-1.09802 3.52346,-1.20419 6.00245,-0.68408 1.03649,0.21744 0.9775,0.23854 1.22455,-0.43663 1.30268,-3.55967 -1.65871,-6.97534 -5.80053,-6.69046 -0.99834,0.0687 -1.00699,0.0648 -0.74398,-0.32741 2.33105,-3.47661 0.46676,-7.62686 -3.53043,-7.85938 -1.59228,-0.0926 -2.4493,0.36027 -3.89607,2.0587 -0.63804,0.7491 -0.86838,0.91827 -1.15994,0.85243 -0.46521,-0.10506 -1.01545,-0.32112 -1.19776,-0.47031 l -0.19936,-0.16315 -0.007,-0.92588 c -0.0179,-2.32781 -1.39698,-4.01089 -3.76267,-4.59206 -0.95057,-0.23357 -0.91134,-0.21109 -1.1826,-0.67538 -1.28394,-2.1973002 -3.0494,-3.1313402 -5.13421,-2.7162302 m 4.83676,11.4975502 c -2.17093,0.37306 -3.61215,1.68598 -4.27515,3.89434 l -0.15573,0.51873 -0.84559,0.009 c -3.05791,0.0342 -5.1162,2.39096 -4.36045,4.99279 0.14612,0.50309 0.26619,0.60497 0.7822,0.66355 2.09692,0.23799 3.87645,1.0835 5.47042,2.5992 0.38004,0.36138 0.73254,0.68119 0.78328,0.71065 0.0631,0.0367 0.31956,-0.1597 0.81271,-0.62246 3.38682,-3.17817 7.14684,-3.54826 11.07152,-1.08966 0.97189,0.60884 0.85905,0.5867 1.19986,0.2348 0.72883,-0.75263 1.30302,-2.33818 1.18524,-3.27285 -0.32464,-2.57659 -2.02068,-4.15951 -4.54811,-4.24486 l -0.9637,-0.0326 -0.0744,-0.28522 c -0.70968,-2.72107 -3.41529,-4.53417 -6.08214,-4.07583 m -30.94852,7.94922 c -2.5392,0.40038 -4.6631803,2.42879 -5.0736703,4.84547 -0.1338,0.78797 -0.0622,34.53898 0.0746,35.12174 1.0881003,4.63674 5.5644403,5.96957 10.3225303,3.07373 1.08851,-0.66251 1.67041,-0.99456 4.41769,-2.52119 0.6325,-0.35148 1.48161,-0.84717 1.88688,-1.10162 1.08086,-0.67842 2.85653,-1.71005 4.47194,-2.5981 1.35308,-0.74385 2.68173,-1.5229 5.54706,-3.25245 0.70691,-0.42666 1.72669,-1.02513 2.26618,-1.32993 0.53948,-0.30473 1.84845,-1.05176 2.90882,-1.65997 1.06037,-0.60822 2.06492,-1.18366 2.23235,-1.27868 3.28913,-1.86726 4.34822,-3.01903 4.93573,-5.36752 0.68283,-2.72978 -0.58264,-5.9325 -2.87946,-7.28726 -0.25659,-0.1514 -1.22759,-0.72656 -2.15774,-1.27827 -0.93015,-0.55164 -2.63275,-1.54067 -3.78363,-2.19785 -1.15082,-0.65712 -2.73376,-1.57449 -3.51765,-2.0385 -0.78383,-0.46408 -1.85136,-1.08842 -2.37225,-1.38748 -0.52088,-0.29913 -1.31215,-0.77711 -1.75835,-1.06227 -0.44626,-0.28522 -1.5117,-0.89669 -2.36764,-1.35898 -1.6562,-0.89441 -2.86668,-1.5897 -4.93871,-2.83691 -0.70691,-0.42549 -1.77235,-1.05314 -2.36765,-1.39474 -0.59529,-0.34166 -1.62833,-0.95687 -2.2956,-1.36721 -2.48176,-1.52607 -3.93503,-1.97681 -5.55145,-1.72201 m 20.49475,4.52967 c -1.07532,0.0975 -3.00799,0.84877 -3.00799,1.16927 0,0.0729 1.44413,1.06448 2.13088,1.46314 0.60273,0.34989 2.59501,1.4816 3.68676,2.09424 0.98839,0.55469 3.09594,1.80384 5.16654,3.06218 0.96269,0.58505 2.149887,1.283325 2.63824,1.55167 1.635907,0.898915 1.937114,1.104276 2.66354,1.81608 2.629474,2.576546 3.501173,6.563739 2.17972,9.97008 -0.930037,2.397379 -1.8538,3.4118 -4.53039,4.97509 -1.05841,0.61817 -3.5397,2.11748 -4.66765,2.82038 -1.02823,0.64073 -4.30756,2.54568 -5.91911,3.43836 -1.43899,0.7971 -3.27331,1.85017 -5.24265,3.00976 -0.72551,0.42721 -1.4561,0.84655 -1.62353,0.93176 -1.39515,0.71064 -1.50636,1.06483 -0.59766,1.90412 1.11185,1.02699 1.44744,1.10612 4.65648,1.09768 1.43243,-0.004 6.37154,-0.0109 10.97574,-0.016 6.7139,-0.007 8.37152,-0.0265 8.37233,-0.0969 7.7e-4,-0.06 0.0213,-0.055 0.0652,0.016 0.10364,0.16751 5.13644,0.1505 5.74378,-0.0194 1.81964,-0.5091 2.29141,-1.2526 3.38925,-5.34068 0.25543,-0.95098 0.6923,-2.55583 0.9708,-3.56637 0.27857,-1.01054 0.77077,-2.86237 1.09372,-4.11519 0.55755,-2.16271 0.78112,-3.00166 1.81443,-6.80803 0.66294,-2.44186 1.7461,-6.5493 2.17952,-8.26495 0.21146,-0.83687 0.66882,-2.60577 1.0164,-3.931 1.1803,-4.50021 1.20229,-4.78392 0.42205,-5.44615 -3.74704,-3.18024 -8.72133,-2.10532 -11.27433,2.43646 -0.41508,0.73845 -0.37138,0.74966 -0.99374,-0.25548 -3.21458,-5.19233 -9.53106,-5.22898 -12.34281,-0.0717 -0.24183,0.44354 -0.55781,0.99927 -0.70211,1.23491 l -0.2624,0.42846 -0.21112,-0.25148 c -0.11615,-0.13831 -0.37856,-0.56733 -0.58319,-0.95325 -1.5803,-2.98071 -4.22625,-4.5532 -7.20671,-4.28298 m -20.1141,0.13114 c -0.43883,0.19089 -0.95552,0.77918 -1.09778,1.24977 -0.0808,0.26738 -0.1,32.34762 -0.0195,32.68472 0.12285,0.51485 0.79411,1.17929 1.35321,1.33947 0.58812,0.16855 0.96302,5.3e-4 4.00173,-1.79193 0.95727,-0.56472 2.24277,-1.30144 2.85667,-1.63722 0.61389,-0.33572 1.78588,-1.01365 2.60441,-1.50651 2.10125,-1.26519 4.20832,-2.52458 4.56617,-2.72923 0.16743,-0.0957 0.68493,-0.39111 1.15,-0.65635 1.36769,-0.78023 3.80751,-2.25014 7.54265,-4.54427 1.19058,-0.73126 2.51478,-1.52566 2.94264,-1.76545 2.81771,-1.57871 3.14857,-1.89215 3.14288,-2.97718 -0.006,-1.18434 -0.4186,-1.53666 -4.12376,-3.52301 -0.48368,-0.25929 -1.27515,-0.70546 -1.75882,-0.99159 -1.33312,-0.78838 -4.58485,-2.74202 -5.3103,-3.19027 -0.35345,-0.21841 -1.19058,-0.70297 -1.86029,-1.07679 -1.19877,-0.66908 -2.68362,-1.55215 -5.75,-3.41962 -2.76473,-1.68383 -3.49214,-2.11658 -4.97307,-2.95871 -0.80053,-0.45523 -1.93538,-1.1277 -2.52202,-1.49447 -1.5226,-0.95195 -2.25839,-1.22307 -2.74484,-1.01136 m 5.1593,10.17155 c -0.14436,0.11723 -0.28344,0.24788 -0.30901,0.29021 -0.0775,0.12816 0.005,14.29428 0.0845,14.4454 0.0901,0.17215 0.59171,0.54355 0.73411,0.54355 0.24792,0 1.19086,-0.52266 3.9284,-2.17738 3.2896,-1.98843 4.03934,-2.42907 5.88529,-3.4589 2.36907,-1.32177 2.6059,-1.52054 2.60204,-2.18464 -0.004,-0.71978 -0.27295,-0.91641 -4.52667,-3.31221 -1.52726,-0.86017 -4.79516,-2.73608 -5.8033,-3.33122 -1.84751,-1.09063 -2.14211,-1.1831 -2.59535,-0.81481"
       stroke="none"
       fill="#fbfbfb"
       fill-rule="evenodd"
       id="path2"
       style="fill:url(#linearGradient54);fill-opacity:1;stroke-width:0.0684006" />
    <path
       style="fill:#000000;fill-opacity:0.1;stroke-width:0.0684006"
       d="m 35.006183,31.739606 c -1.07532,0.0975 -3.00799,0.84877 -3.00799,1.16927 0,0.0729 1.44413,1.06448 2.13088,1.46314 0.60273,0.34989 2.59501,1.4816 3.68676,2.09424 0.98839,0.55469 3.09594,1.80384 5.16654,3.06218 0.96269,0.58505 2.149887,1.283325 2.63824,1.55167 1.635907,0.898915 1.937114,1.104276 2.66354,1.81608 2.629474,2.576546 3.501173,6.563739 2.17972,9.97008 -0.930037,2.397379 -1.8538,3.4118 -4.53039,4.97509 -1.05841,0.61817 -3.5397,2.11748 -4.66765,2.82038 -1.02823,0.64073 -4.316941,2.528951 -5.91911,3.43836 -1.517318,0.861247 -1.658493,0.917353 -1.624547,1.098922 0.277658,1.48514 0.585472,3.537681 1.046732,5.823943 1.43243,-0.004 4.141995,0.0096 8.746195,0.0045 6.7139,-0.007 8.37152,-0.0265 8.37233,-0.0969 1.576364,-9.865573 4.129719,-27.229259 5.105861,-34.281507 0.0552,-0.398787 -0.03062,0.07374 -0.678781,-1.013283 -3.21458,-5.19233 -9.53106,-5.22898 -12.34281,-0.0717 -0.24183,0.44354 -0.55781,0.99927 -0.70211,1.23491 l -0.2624,0.42846 -0.21112,-0.25148 c -0.11615,-0.13831 -0.37856,-0.56733 -0.58319,-0.95325 -1.5803,-2.98071 -4.22625,-4.5532 -7.20671,-4.28298"
       id="path49" />
  </g>
  <g
     id="layer2"
     style="fill:#ffffff"
     transform="translate(-16.134215,4.1653873)">
    <path
       style="font-weight:bold;font-size:38.1px;font-family:Geist;-inkscape-font-specification:'Geist Bold';fill:#d1d5db;stroke-width:0.264583"
       d="M 101.2916,52.415897 93.976404,25.364898 h 6.057896 l 4.6482,19.05 4.6863,-19.05 h 5.0673 l 4.7244,19.05 4.6101,-19.05 h 6.0579 l -7.2771,27.050999 h -6.2484 l -4.4196,-17.297399 -4.4196,17.297399 z m 36.23303,0.4572 q -3.1623,0 -5.1816,-1.4478 -1.9812,-1.4859 -1.9812,-4.114799 0,-2.7051 1.6764,-4.1529 1.7145,-1.4859 5.0292,-2.1717 l 6.59129,-1.2954 q 0,-1.9812 -0.9144,-2.9718 -0.87629,-1.0287 -2.55269,-1.0287 -1.6383,0 -2.5527,0.762 -0.9144,0.7239 -1.1811,2.1717 l -5.7531,-0.2667 q 0.5715,-3.3528 3.0099,-5.0673 2.4765,-1.7526 6.477,-1.7526 4.57199,0 6.85799,2.1717 2.3241,2.1717 2.3241,6.3627 v 6.9723 q 0,0.8763 0.2667,1.1811 0.3048,0.2667 0.8763,0.2667 h 0.5715 v 3.924299 q -0.2667,0.0762 -0.8763,0.1524 -0.5715,0.0762 -1.143,0.0762 -1.2192,0 -2.286,-0.4191 -1.0287,-0.4191 -1.6764,-1.4097 -0.6477,-1.0287 -0.6477,-2.895599 l 0.4953,0.381 q -0.381,1.371599 -1.3716,2.400299 -0.95249,1.0287 -2.51459,1.6002 -1.524,0.5715 -3.5433,0.5715 z m 1.3716,-3.924299 q 1.4097,0 2.4765,-0.5334 1.0668,-0.5715 1.67639,-1.6383 0.6096,-1.0668 0.6096,-2.5146 v -0.9906 l -4.64819,0.9906 q -1.3716,0.2667 -2.0955,0.9144 -0.6858,0.6096 -0.6858,1.6002 0,1.0287 0.6858,1.6002 0.6858,0.5715 1.9812,0.5715 z m 22.56277,3.467099 q -3.1623,0 -4.6482,-1.4478 -1.4859,-1.4859 -1.4859,-4.686299 v -19.0881 h 5.715 v 18.4023 q 0,1.4859 0.6096,2.0193 0.6477,0.5334 1.905,0.5334 h 2.8575 v 4.267199 z m -9.4107,-16.154399 v -4.2672 h 14.3637 v 4.2672 z m 26.64708,16.611599 q -3.1242,0 -5.4483,-1.2954 -2.3241,-1.3335 -3.6195,-3.733799 -1.2954,-2.4003 -1.2954,-5.6388 0,-3.2385 1.2954,-5.6007 1.2954,-2.4003 3.6195,-3.7338 2.3241,-1.3335 5.4483,-1.3335 2.7051,0 4.8387,0.9525 2.1717,0.9525 3.5052,2.7432 1.3335,1.7907 1.6383,4.3053 l -5.9055,0.2667 q -0.2667,-1.905 -1.3716,-2.8575 -1.0668,-0.9906 -2.7051,-0.9906 -2.1336,0 -3.3147,1.6383 -1.1811,1.6383 -1.1811,4.6101 0,2.9718 1.1811,4.6482 1.1811,1.6383 3.3147,1.6383 1.6383,0 2.7432,-0.9906 1.1049,-1.0287 1.3335,-3.0861 l 5.9055,0.2286 q -0.2667,2.5146 -1.6002,4.3815 -1.2954,1.828799 -3.4671,2.857499 -2.1336,0.9906 -4.9149,0.9906 z m 13.14448,-0.4572 V 25.364898 h 5.715 v 11.3919 h -0.762 q 0.3048,-1.7907 1.1811,-2.9337 0.9144,-1.143 2.2479,-1.7145 1.3716,-0.5715 2.9718,-0.5715 2.286,0 3.81,0.9906 1.524,0.9906 2.286,2.7432 0.8001,1.7526 0.8001,4.0005 v 13.144499 h -5.715 V 40.642998 q 0,-2.286 -0.7239,-3.429 -0.6858,-1.143 -2.3622,-1.143 -1.7526,0 -2.7432,1.1811 -0.9906,1.1811 -0.9906,3.5433 v 11.620499 z"
       id="text49"
       aria-label="Watch" />
    <path
       style="font-weight:bold;font-size:38.1px;font-family:Geist;-inkscape-font-specification:'Geist Bold';fill:url(#linearGradient53);stroke-width:0.264583;filter:url(#filter54)"
       d="M 219.18482,52.415897 V 30.241698 h -8.0772 v -4.8768 h 22.0218 v 4.8768 h -8.1153 v 22.174199 z m 16.15445,0 V 25.364898 h 5.715 v 11.3919 h -0.762 q 0.3048,-1.7907 1.1811,-2.9337 0.9144,-1.143 2.2479,-1.7145 1.3716,-0.5715 2.9718,-0.5715 2.286,0 3.81,0.9906 1.524,0.9906 2.286,2.7432 0.8001,1.7526 0.8001,4.0005 v 13.144499 h -5.715 V 40.642998 q 0,-2.286 -0.7239,-3.429 -0.6858,-1.143 -2.3622,-1.143 -1.7526,0 -2.7432,1.1811 -0.9906,1.1811 -0.9906,3.5433 v 11.620499 z m 22.9438,0 V 31.994298 h 5.715 v 20.421599 z m -0.1143,-22.936199 v -4.572 h 5.9055 v 4.572 z m 19.1643,23.393399 q -3.1623,0 -5.2959,-0.8763 -2.1336,-0.9144 -3.2766,-2.4384 -1.1049,-1.562099 -1.2573,-3.581399 l 5.7912,-0.1905 q 0.2667,1.4478 1.2192,2.2479 0.9525,0.8001 2.8194,0.8001 1.524,0 2.3622,-0.4953 0.8763,-0.4953 0.8763,-1.524 0,-0.6477 -0.3048,-1.0668 -0.3048,-0.4572 -1.2192,-0.762 -0.8763,-0.3429 -2.6289,-0.6096 -3.2385,-0.5715 -5.0673,-1.3335 -1.8288,-0.762 -2.5908,-1.9812 -0.762,-1.2192 -0.762,-2.9718 0,-2.9337 2.2479,-4.7244 2.286,-1.8288 6.8199,-1.8288 2.8956,0 4.8387,0.9144 1.9812,0.9144 3.048,2.5146 1.1049,1.5621 1.3716,3.5814 l -5.7531,0.2286 q -0.1143,-0.9906 -0.6096,-1.6764 -0.4572,-0.7239 -1.1811,-1.1049 -0.7239,-0.4191 -1.7526,-0.4191 -1.524,0 -2.3622,0.6477 -0.8001,0.6096 -0.8001,1.6383 0,0.762 0.3429,1.2573 0.381,0.4572 1.2192,0.762 0.8382,0.3048 2.2479,0.4953 3.2766,0.4572 5.1816,1.2954 1.9431,0.8001 2.7813,2.0193 0.8382,1.2192 0.8382,3.0099 0,1.9812 -1.143,3.352799 -1.143,1.3716 -3.2004,2.0955 -2.0193,0.7239 -4.8006,0.7239 z"
       id="text52"
       aria-label="This" />
  </g>
</svg>
